<svg id="Layer_1" data-name="Layer 1" xmlns="http://www.w3.org/2000/svg" viewBox="0 0 762.47 673.5"><defs><style>.cls-1{fill:#222;}</style></defs><path class="cls-1" d="M603.22,492.58A91.82,91.82,0,1,0,695,584.4,91.82,91.82,0,0,0,603.22,492.58Zm-.05,142.93a51.11,51.11,0,1,1,51.11-51.11A51.11,51.11,0,0,1,603.17,635.51Z" transform="translate(-2.35 -2.72)"/><path class="cls-1" d="M306.11,492.58a91.82,91.82,0,1,0,91.81,91.82A91.82,91.82,0,0,0,306.11,492.58Zm-.05,142.93a51.11,51.11,0,1,1,51.11-51.11A51.12,51.12,0,0,1,306.06,635.51Z" transform="translate(-2.35 -2.72)"/><path class="cls-1" d="M394.43,564.06H461a20.51,20.51,0,0,1,20.45,20.45h0A20.52,20.52,0,0,1,461,605H394.43" transform="translate(-2.35 -2.72)"/><path class="cls-1" d="M700.54,453.87H208.28a23.11,23.11,0,0,1-23.08-22c0-.86-.1-1.72-.2-2.57l-1.82-16.36H725.86l-2.21,17.85A23.11,23.11,0,0,1,700.54,453.87Z" transform="translate(-2.35 -2.72)"/><path class="cls-1" d="M761.51,156.52H249.29L246,132.13a17.25,17.25,0,0,1,17.26-17.25H747.57a17.25,17.25,0,0,1,17.25,17.25Z" transform="translate(-2.35 -2.72)"/><path class="cls-1" d="M273.91,348.28l-31.16-208a20.5,20.5,0,0,1,16.73-23.59h0a20.51,20.51,0,0,1,23.6,16.73l31.16,208A20.52,20.52,0,0,1,297.5,365h0A20.52,20.52,0,0,1,273.91,348.28Z" transform="translate(-2.35 -2.72)"/><path class="cls-1" d="M678.37,453.87l48.7-337.74,22.9.07a17.26,17.26,0,0,1,14.54,19.59L722.42,439a17.27,17.27,0,0,1-19.6,14.55Z" transform="translate(-2.35 -2.72)"/><path class="cls-1" d="M186.6,439,126.06,2.84l23.71,0A17.24,17.24,0,0,1,169.1,17.78l60.56,436.35-23.74-.25A17.24,17.24,0,0,1,186.6,439Z" transform="translate(-2.35 -2.72)"/><path class="cls-1" d="M150.74,43.5H22.62A20.33,20.33,0,0,1,2.35,23.23h0A20.33,20.33,0,0,1,22.62,3H150.74" transform="translate(-2.35 -2.72)"/></svg>